<svg xmlns="http://www.w3.org/2000/svg" width="0" height="0" style="position:absolute">
  <symbol id="person" viewBox="0 0 18 18">
    <path d="M9 9a3 3 0 1 0 0-6 3 3 0 0 0 0 6Zm0-5a2 2 0 1 1 0 4 2 2 0 0 1 0-4Zm0 6.5c-2.34 0-7 1.17-7 3.5v1a.5.5 0 0 0 .5.5h13a.5.5 0 0 0 .5-.5v-1c0-2.33-4.66-3.5-7-3.5Zm0 1c2.5 0 5.37 1.28 6 2.01V14H3v-.49c.63-.73 3.5-2.01 6-2.01Z"/>
  </symbol>
  <symbol id="phone" viewBox="0 0 18 18">
    <path d="M14.54 11.12 12.9 9.86c-.47-.36-1.17-.25-1.5.24l-.58.84a.7.7 0 0 1-.83.28A7.64 7.64 0 0 1 7.28 9c-.2-.24-.25-.59-.13-.88l.5-.96c.32-.61.15-1.32-.39-1.63L5.7 4.4a.94.94 0 0 0-1.34.35l-.82 1.41c-.32.56-.32 1.26-.01 1.84.47.87 1.27 2.1 2.8 3.6 1.54 1.52 2.96 2.42 3.99 2.98.61.34 1.35.35 1.97.04l1.42-.74c.46-.23.62-.8.38-1.24l-.55-.52Z"/>
  </symbol>
  <symbol id="email" viewBox="0 0 18 18">
    <path d="M14.25 3.75h-10.5c-.62 0-1.12.5-1.12 1.12v7.5c0 .62.5 1.13 1.12 1.13h10.5c.62 0 1.13-.5 1.13-1.13v-7.5c0-.62-.5-1.12-1.13-1.12Zm0 .75v.98l-5.25 3.07-5.25-3.08v-.97h10.5Zm-10.5 8.25v-6.27l5.25 3.07 5.25-3.07v6.27h-10.5Z"/>
  </symbol>
  <symbol id="check" viewBox="0 0 10 8">
    <path d="M8.44.44 3.6 5.29 1.56 3.25 0 4.82l3.6 3.6L10 2l-1.56-1.56Z" fill="#F4F4FD"/>
  </symbol>
</svg> 